<svg xmlns="http://www.w3.org/2000/svg" viewBox="0 0 119.9 51.6"><defs><style>.cls-1{fill: #1dda82;}.cls-2{fill:#424e5a;}</style></defs><title>click_logo</title><g id="Слой_2" data-name="Слой 2"><g id="Слой_1-2" data-name="Слой 1"><rect class="cls-1" x="8.75" y="8.1" width="29.33" height="42" rx="14.67" ry="14.67"/><path class="cls-2" d="M23.42,6.6A16.19,16.19,0,0,0,7.25,22.77V35.44a16.17,16.17,0,0,0,32.33,0V22.77A16.19,16.19,0,0,0,23.42,6.6Zm-.75,14.73V15.71a.75.75,0,0,1,1.5,0v5.62a.75.75,0,0,1-1.5,0Zm13.91,1.44v3.88a110.46,110.46,0,0,1-11.66,1.08v-3a3.76,3.76,0,0,0,2.25-3.44V15.71a3.75,3.75,0,0,0-2.25-3.43V9.7A13.17,13.17,0,0,1,36.58,22.77ZM21.92,9.7v2.58a3.75,3.75,0,0,0-2.25,3.43v5.62a3.76,3.76,0,0,0,2.25,3.44v3a110.7,110.7,0,0,1-11.67-1.08V22.77A13.17,13.17,0,0,1,21.92,9.7Zm1.5,38.9A13.18,13.18,0,0,1,10.25,35.44V29.68a101.23,101.23,0,0,0,13.17,1.07,101.05,101.05,0,0,0,13.16-1.07v5.76A13.17,13.17,0,0,1,23.42,48.6Z"/><path class="cls-2" d="M19.19,3a1.5,1.5,0,0,0,0-3A19.21,19.21,0,0,0,0,19.19v6.23a1.5,1.5,0,0,0,3,0V19.19A16.2,16.2,0,0,1,19.19,3Z"/><path class="cls-2" d="M64.08,26.4H57.64l-5-7.66V26.4H47.35V9.16h5.33v7.22l4.9-7.22h6.09l-6.09,8.32Z"/><path class="cls-2" d="M80.28,26.4H75V13.46H71.57V20a8,8,0,0,1-1.14,4.75Q69,26.65,65.68,26.65a8.22,8.22,0,0,1-2.11-.28L63.89,22a3.23,3.23,0,0,0,1.31.27,1,1,0,0,0,1-.52,5,5,0,0,0,.3-2.11V9.16H80.28Z"/><path class="cls-2" d="M100.14,26.4h-5.3V16.71L88.42,26.4H83.36V9.14h5.28V19l6.48-9.84h5Z"/><path class="cls-2" d="M119.9,26.4h-6.44l-5-7.66V26.4h-5.32V9.16h5.32v7.22l4.9-7.22h6.1l-6.1,8.32Z"/><path class="cls-2" d="M56.57,46.66a8.77,8.77,0,0,1-3.22.69,6.88,6.88,0,0,1-5-1.92,6.58,6.58,0,0,1-2-4.92,6.46,6.46,0,0,1,2.14-5,6.89,6.89,0,0,1,4.81-1.83,7.74,7.74,0,0,1,3.26.72v4a4,4,0,0,0-2.92-1.2,3,3,0,0,0-2.31,1,3.44,3.44,0,0,0-.84,2.37,3.22,3.22,0,0,0,.89,2.32,3,3,0,0,0,2.26.92,4,4,0,0,0,2.92-1.15Z"/><path class="cls-2" d="M66.69,47H58.53V34.05h8.16v3.22H62.52V39h3.86v3H62.52v1.75h4.17Z"/><path class="cls-2" d="M79.12,38.43a3.9,3.9,0,0,1-1.24,3.1,5.24,5.24,0,0,1-3.56,1.09h-1.7V47h-4V34.05H74a5.56,5.56,0,0,1,3.9,1.23A4.08,4.08,0,0,1,79.12,38.43ZM75,38.33c0-.92-.56-1.39-1.69-1.39h-.73v2.78h.7C74.47,39.72,75,39.26,75,38.33Z"/><path class="cls-2" d="M91.48,43.16a3.4,3.4,0,0,1-1.15,2.71A5.61,5.61,0,0,1,86.58,47H80.7V34.05h5.62a4.46,4.46,0,0,1,3.16,1,2.91,2.91,0,0,1,.94,2.22,2.65,2.65,0,0,1-1.73,2.53,3.73,3.73,0,0,1,2,1.15A3.28,3.28,0,0,1,91.48,43.16ZM86.8,38c0-.78-.48-1.18-1.44-1.18h-.72V39.2h.44C86.23,39.2,86.8,38.81,86.8,38ZM87.4,43c0-.86-.52-1.29-1.57-1.29H84.64v2.47h1a2.28,2.28,0,0,0,1.21-.28A1,1,0,0,0,87.4,43Z"/><path class="cls-2" d="M105.68,47h-4V39.71L96.89,47H93.1V34h4v7.38L101.91,34h3.77Z"/><path class="cls-2" d="M117.54,46.66a8.73,8.73,0,0,1-3.22.69,6.87,6.87,0,0,1-5-1.92,6.55,6.55,0,0,1-2-4.92,6.49,6.49,0,0,1,2.13-5,6.92,6.92,0,0,1,4.82-1.83,7.69,7.69,0,0,1,3.25.72v4a4,4,0,0,0-2.91-1.2,2.94,2.94,0,0,0-2.31,1,3.44,3.44,0,0,0-.85,2.37,3.18,3.18,0,0,0,.9,2.32,3,3,0,0,0,2.26.92,4,4,0,0,0,2.91-1.15Z"/></g></g></svg>