<?xml version="1.0" encoding="utf-8"?>
<!-- Generator: Adobe Illustrator 22.0.1, SVG Export Plug-In . SVG Version: 6.00 Build 0)  -->
<svg version="1.1" id="Слой_1" xmlns="http://www.w3.org/2000/svg" xmlns:xlink="http://www.w3.org/1999/xlink" x="0px" y="0px"
	 viewBox="0 0 3223.3 1007.7" style="enable-background:new 0 0 3223.3 1007.7;" xml:space="preserve">
<style type="text/css">
	.st0{fill:#F1CB45;}
	.st1{fill:#FFFFFF;}
	.st2{fill:#424E5A;}
	.st3{font-family:'ArialMT';}
	.st4{font-size:333.9869px;}
</style>
<g id="Layer_2_1_">
</g>
<g id="Layer_1">
	<path class="st0" d="M771.9,1000H228.1C102.1,1000,0,897.9,0,771.9V228.1C0,102.1,102.1,0,228.1,0h543.8
		c126,0,228.1,102.1,228.1,228.1v543.8C1000,897.9,897.9,1000,771.9,1000z"/>
	<g id="XMLID_10317_">
		<path id="XMLID_10338_" class="st1" d="M384.2,701.4c50.7,50.7,118.1,80,189.8,82.3c3.2,0.1,6.3,0.1,9.4,0.1
			c74.5,0,146.8-29.8,199.5-82.5c53.3-53.2,82.6-124,82.6-199.4c0-75.3-29.3-146.1-82.6-199.4c-55.7-55.7-129.9-84.9-209-82.2
			c-15.9,0.5-31.4,2.3-46.4,5.3l-1.5,0.4c-16.1,5.3-22.9,14.9-25.8,22.1c-6.2,15.4,0.3,32,5,40.9l1,1.7c0.4,0.6,0.8,1.2,1.1,1.9
			l0.4,1l0.3,0.3c19.2,38.1,11.9,83.8-18.4,114c-31.4,31.4-80.3,37.9-118.9,15.7l-19.7-11.3v5.3c-6-0.6-11.8,0.2-17.3,2.2
			c-16.5,6.1-24.2,21.8-26.2,26.5l-0.8,2.6C289.4,541.2,318.2,635.5,384.2,701.4z M332.3,455.6c1.3-2.6,4.8-8.9,10.6-11
			c4.1-1.5,9.4-0.7,15.5,2.4l2.6,1.3c1.9,1,3.8,2,5.8,2.9l18,9l-0.6-2.4c43.2,13,91.3,1.7,124.2-31.2c36.9-36.9,46.8-91.9,25.8-139
			l1-1.6l-5-6.5c-0.5-0.8-0.9-1.5-1.4-2.3l-0.5-0.8c-3.9-7.3-5.3-14.4-3.7-18.4c1.2-2.8,4.1-5,9-6.7c13.3-2.6,27.2-4.2,41.3-4.7
			c71.7-2.5,139,24,189.5,74.5c48.3,48.3,74.9,112.5,74.9,180.8s-26.6,132.5-74.9,180.9c-50.6,50.6-118,77.2-189.6,74.7
			c-65-2.2-126.2-28.7-172.2-74.7C343.4,623.5,317.1,538.6,332.3,455.6z"/>
		<path id="XMLID_10335_" class="st1" d="M427.8,607.7c15.3-4.1,28.1-13.9,36-27.6c7.9-13.7,10.1-29.7,5.9-45
			c-8.5-31.6-41-50.4-72.7-41.9l0,0c-15.3,4.1-28.1,13.9-36,27.6c-7.9,13.7-10.1,29.7-5.9,45c4.1,15.3,13.9,28.1,27.6,36
			c9.1,5.3,19.3,8,29.5,8C417.5,609.8,422.6,609.1,427.8,607.7z M389.3,590.5c-10.7-6.2-18.3-16.1-21.5-28s-1.5-24.4,4.6-35.1
			c6.2-10.7,16.1-18.3,28-21.5c24.6-6.6,50,8.1,56.6,32.7c3.2,11.9,1.5,24.4-4.6,35.1c-6.2,10.7-16.1,18.4-28.1,21.5
			C412.4,598.3,400,596.6,389.3,590.5z"/>
		<path id="XMLID_10332_" class="st1" d="M478.4,700.4c7.9,13.7,20.7,23.5,36,27.6c5.2,1.4,10.3,2.1,15.5,2.1
			c14.8,0,29.1-5.6,40.3-16c8.2-7.6,14-17.3,16.9-28c5.7-21.2-0.8-43.7-16.9-58.7c-7.1-6.6-15.8-11.4-25.1-13.9
			c-31.6-8.4-64.2,10.4-72.7,41.9l0,0C468.3,670.7,470.4,686.7,478.4,700.4z M485.1,658.8c6.6-24.6,32-39.2,56.6-32.7
			c7.3,1.9,13.9,5.6,19.5,10.8c12.5,11.7,17.5,29.2,13.1,45.7c-2.3,8.3-6.8,15.9-13.1,21.8c-11.7,11-28,15.1-43.4,10.9
			c-11.9-3.2-21.9-10.8-28-21.5C483.5,683.1,481.9,670.7,485.1,658.8z"/>
		<path id="XMLID_10329_" class="st1" d="M692.1,575.1c-15.9,0-30.7,6.2-41.9,17.4c-23.1,23.1-23.1,60.8,0,83.9
			c11.2,11.2,26.1,17.4,41.9,17.4c15.9,0,30.7-6.2,41.9-17.4c11.2-11.2,17.4-26.1,17.4-41.9s-6.2-30.7-17.4-41.9
			C722.8,581.2,707.9,575.1,692.1,575.1z M724.7,667c-8.8,8.8-20.4,13.5-32.7,13.5c-12.4,0-24-4.8-32.7-13.5c-18-18-18-47.3,0-65.3
			l0,0c8.8-8.8,20.3-13.5,32.7-13.5s24,4.8,32.7,13.5c8.7,8.8,13.5,20.3,13.5,32.7C738.3,646.7,733.4,658.3,724.7,667z"/>
		<path id="XMLID_10326_" class="st1" d="M687.6,494c7.1,26.5,31.1,43.9,57.3,43.9c5.1,0,10.2-0.6,15.3-2
			c15.3-4.1,28.1-13.9,36-27.6c7.9-13.7,10.1-29.7,5.9-45c-8.4-31.6-41-50.4-72.6-41.9l0,0C697.9,429.8,679.1,462.4,687.6,494z
			 M732.9,434c24.6-6.6,50,8.1,56.6,32.7c3.2,11.9,1.5,24.4-4.6,35.1c-6.1,10.7-16.1,18.4-28,21.5c-24.6,6.6-49.9-8.1-56.6-32.7
			C693.6,466,708.2,440.7,732.9,434z"/>
		<path id="XMLID_10323_" class="st1" d="M612.3,413.8c5.2,1.4,10.3,2.1,15.5,2.1c10.2,0,20.4-2.7,29.5-8
			c13.7-7.9,23.5-20.7,27.6-36c8.4-31.6-10.4-64.2-41.9-72.6c-31.6-8.5-64.2,10.4-72.6,41.9c-4.1,15.3-2,31.2,5.9,45
			C584.2,399.9,597,409.7,612.3,413.8z M583.1,344.5c6.6-24.6,32-39.3,56.6-32.7c24.6,6.6,39.2,32,32.7,56.6
			c-3.2,11.9-10.8,21.9-21.5,28.1c-10.7,6.1-23.1,7.8-35.1,4.6c-11.9-3.2-21.9-10.8-28.1-21.5C581.5,368.9,579.8,356.4,583.1,344.5z
			"/>
		<path id="XMLID_10318_" class="st1" d="M225.3,184l-4.2,5.1l-0.2-0.2l4-5.2l-7.9-6.1l-7.9,6c-3,2.3-74.7,57.2-74.7,127.4
			c0,47.4,16.4,69.5,38.1,79.5c-0.8,4.8-1.6,9.5-2.3,14.2c-8,53.2-10.2,114-6.1,171.3c13.5,191.3,24.2,241.6,51.9,244.7l14.6,1.6
			v-6.7c21.3-15.3,28.7-79.3,38.7-241c3.5-57.1,1.6-117.8-5.5-171l-1.7-11.4H262c-0.1-0.6-0.2-1-0.3-1.6
			c21.5-10.1,37.9-32.2,37.9-79.5C299.5,243.3,233.1,190,225.3,184z M243.1,573c-4.3,68.2-11.9,191.6-25.3,217.5
			c-14.3-29.6-23.5-158.7-27.5-216.2c-3.9-55.4-1.9-114.2,5.9-165.7c0.5-3.7,1.2-7.3,1.8-11.1c6.4,0.8,13.1,1.1,19.5,1.1h0.1
			c6.2,0,12.4-0.3,18.7-1c0.5,3.2,1,6.3,1.4,9.5l1.5,11.3h0.1C244.9,467.2,246.3,521.6,243.1,573z M270.4,321.7
			c1.7-2.9,2.6-6.3,2.9-10.1c-0.1,51.2-18.9,60.6-56.3,60.8c-37.4,0-56.3-9.5-56.3-61.3c0-5.3,0.6-10.6,1.6-15.8
			c3.9,2.1,8.1,3.3,12.8,3.5c18,0.6,24-15.5,27.9-26.1c2.1-5.7,4.4-12.1,6.5-12.3c3.3,1.6,8.6,15.7,12,25.1
			c7.9,20.9,16.7,44.4,33.6,44.4c1.3,0,2.7-0.1,4.1-0.5C264.1,328.4,268,325.7,270.4,321.7z M254.7,280c3.2,11.6,8.1,29.1,4.4,34.9
			c-0.4,0.6-1,1.3-2.6,1.7c-8.8,1.8-16.8-19.9-22.7-35.8c-7-18.7-12.6-33.5-23.8-33.5c-0.2,0-0.5,0-0.6,0
			c-11.3,0.5-15.5,11.8-18.8,20.8c-4.4,12.1-7.4,17.9-15.2,17.5c-5.9-0.2-10.6-3.3-14.4-9.5c13.9-36,45-64.4,56-73.6
			c7.8,6.5,25.6,22.5,40.3,44.2c-1.5,0.4-2.9,1.2-4.1,2.4C247.7,254.8,250.5,264.8,254.7,280z"/>
	</g>
	<g>
		<text transform="matrix(1 0 0 1 1148.4281 430.7336)" class="st2 st3 st4">ДИЗАЙН</text>
		<text transform="matrix(1 0 0 1 1148.4281 776.3665)" class="st2 st3 st4">ИНТЕРЬЕРА</text>
	</g>
</g>
</svg>
