<?xml version="1.0" encoding="utf-8"?>
<!-- Generator: Adobe Illustrator 22.0.1, SVG Export Plug-In . SVG Version: 6.00 Build 0)  -->
<svg version="1.1" id="Слой_1" xmlns="http://www.w3.org/2000/svg" xmlns:xlink="http://www.w3.org/1999/xlink" x="0px" y="0px"
	 viewBox="0 0 3857.9 996.7" style="enable-background:new 0 0 3857.9 996.7;" xml:space="preserve">
<style type="text/css">
	.st0{fill:#2D509B;}
	.st1{fill:#FFFFFF;}
	.st2{fill:#424E5A;}
	.st3{font-family:'ArialMT';}
	.st4{font-size:333.9638px;}
</style>
<g id="Layer_2_1_">
</g>
<g id="Layer_1">
	<path class="st0" d="M776.9,999.6H233.2c-126,0-228.1-102.1-228.1-228.1V227.7c0-126,102.1-228.1,228.1-228.1H777
		c126,0,228.1,102.1,228.1,228.1v543.8C1005.1,897.5,903,999.6,776.9,999.6z"/>
	<path class="st1" d="M781.8,295c-0.2-6.9-2.9-9-8.6-10.2c-94-21.4-179.3-63-258-120.1c-2.7-2-4.9-2.8-7.1-2.7l0,0v-0.3
		c-2.2,0.1-4.3,1.2-6.9,3c-27.5,17.8-54.6,36.4-83.1,52.3c-57.3,32-117.4,56.4-181.3,70.1c-4.5,1-7.8,2.3-7.9,8.7
		c-1.4,52.4,1.6,104.2,12.4,155.6c4.8,22.7,10.8,45.2,18,66.1h0.4l-0.4,0.6c24.4,73.3,62.3,139.5,112.1,199.3
		c38.5,46.3,82.1,86.6,132.5,120.3v-0.3c84-56.2,151-129.1,201.5-217.9c18.6-32.8,33.6-65.8,45.3-101.4h0.2
		C774.7,447.2,784.6,372.7,781.8,295z"/>
	<g>
		<text transform="matrix(1 0 0 1 1153.4706 594.9565)" class="st2 st3 st4">СТРАХОВАНИЕ</text>
	</g>
</g>
</svg>
