<?xml version="1.0" encoding="utf-8"?>
<!-- Generator: Adobe Illustrator 22.0.1, SVG Export Plug-In . SVG Version: 6.00 Build 0)  -->
<svg version="1.1" id="Слой_1" xmlns="http://www.w3.org/2000/svg" xmlns:xlink="http://www.w3.org/1999/xlink" x="0px" y="0px"
	 viewBox="0 0 5112 1245.4" style="enable-background:new 0 0 5112 1245.4;" xml:space="preserve">
<style type="text/css">
	.st0{fill:#72BDBF;}
	.st1{fill:#FFFFFF;}
	.st2{fill:#424E5A;}
	.st3{font-family:'ArialMT';}
	.st4{font-size:417.4789px;}
</style>
<g id="Layer_2_1_">
</g>
<g id="Layer_1">
	<path class="st0" d="M966.6,1244.6H286.9c-157.5,0-285.1-127.7-285.1-285.1V279.8C1.8,122.3,129.5-5.3,286.9-5.3h679.7
		c157.5,0,285.1,127.7,285.1,285.1v679.7C1251.8,1116.9,1124.1,1244.6,966.6,1244.6z"/>
	<g>
		<path id="XMLID_9607_" class="st1" d="M827.5,381.3v-37.1c0-51.5-48.2-93.4-107.4-93.4H533.4c-59.2,0-107.4,41.9-107.4,93.4v37.1
			H310.1c-50.9,0-92.3,41.4-92.3,92.3v422.5c0,50.9,41.4,92.3,92.3,92.3h633.3c50.9,0,92.3-41.4,92.3-92.3V473.6
			c0-50.9-41.4-92.3-92.3-92.3H827.5z M997.7,896.1c0,30-24.3,54.3-54.3,54.3H310.1c-30,0-54.3-24.3-54.3-54.3V473.6
			c0-30,24.3-54.3,54.3-54.3h633.3c30,0,54.3,24.4,54.3,54.3L997.7,896.1L997.7,896.1z M533.4,288.7h186.7
			c38.3,0,69.4,24.9,69.4,55.4v37.1H734v-16.1c0-30.4-27.8-55.1-61.9-55.1h-90.7c-34.1,0-61.9,24.7-61.9,55.1v16.1H464v-37.1
			C464,313.6,495.1,288.7,533.4,288.7z M696,381.3H557.4v-16.1c0-9.3,11-17.1,24-17.1h90.7c13,0,23.9,7.8,23.9,17.1L696,381.3
			L696,381.3z"/>
		<g>
			<path id="XMLID_1_" class="st1" d="M778,625.1h-83.9v-83.9c0-6.3-5.1-11.4-11.4-11.4H586c-6.3,0-11.4,5.1-11.4,11.4v83.9h-83.9
				c-6.3,0-11.4,5.1-11.4,11.4v96.7c0,6.3,5.1,11.4,11.4,11.4h83.9v83.9c0,6.3,5.1,11.4,11.4,11.4h96.7c6.3,0,11.4-5.1,11.4-11.4
				v-83.9H778c6.3,0,11.4-5.1,11.4-11.4v-96.7C789.4,630.2,784.3,625.1,778,625.1z M766.6,721.8h-83.9c-6.3,0-11.4,5.1-11.4,11.4
				v83.9h-73.9v-83.9c0-6.3-5.1-11.4-11.4-11.4h-83.9v-73.9H586c6.3,0,11.4-5.1,11.4-11.4v-83.9h73.9v83.9c0,6.3,5.1,11.4,11.4,11.4
				h83.9L766.6,721.8L766.6,721.8z"/>
			<path class="st1" d="M682.7,842.4H586c-7.7,0-13.9-6.2-13.9-13.9v-81.4h-81.4c-7.7,0-13.9-6.3-13.9-13.9v-96.7
				c0-7.7,6.3-13.9,13.9-13.9h81.4v-81.4c0-7.7,6.3-13.9,13.9-13.9h96.7c7.7,0,13.9,6.3,13.9,13.9v81.4H778
				c7.7,0,13.9,6.3,13.9,13.9v96.7c0,7.7-6.3,13.9-13.9,13.9h-81.4v81.4C696.6,836.2,690.4,842.4,682.7,842.4z M490.7,627.6
				c-4.9,0-8.9,4-8.9,8.8v96.7c0,4.9,4,8.8,8.9,8.8h86.4v86.4c0,4.9,4,8.9,8.9,8.9h96.7c4.9,0,8.9-4,8.9-8.9v-86.4H778
				c4.9,0,8.9-4,8.9-8.8v-96.7c0-4.9-4-8.8-8.9-8.8h-86.4v-86.4c0-4.9-4-8.9-8.9-8.9H586c-4.9,0-8.9,4-8.9,8.9v86.4H490.7
				L490.7,627.6z M673.8,819.7h-79v-86.4c0-4.9-4-8.9-8.9-8.9h-86.4v-79H586c4.9,0,8.9-4,8.9-8.9v-86.4h79v86.4c0,4.9,4,8.9,8.9,8.9
				h86.4v79h-86.4c-4.9,0-8.9,4-8.9,8.9v86.4H673.8z M599.9,814.6h68.9v-81.4c0-7.7,6.3-13.9,13.9-13.9h81.4v-68.9h-81.4
				c-7.7,0-13.9-6.3-13.9-13.9v-81.4h-68.9v81.4c0,7.7-6.3,13.9-13.9,13.9h-81.4v68.9H586c7.7,0,13.9,6.3,13.9,13.9V814.6z"/>
		</g>
	</g>
	<g>
		<text transform="matrix(1 0 0 1 1437.2815 738.7961)" class="st2 st3 st4">ТЕЛЕМЕДИЦИНА</text>
	</g>
</g>
</svg>
