<?xml version="1.0" encoding="utf-8"?>
<!-- Generator: Adobe Illustrator 22.0.1, SVG Export Plug-In . SVG Version: 6.00 Build 0)  -->
<svg version="1.1" id="Слой_1" xmlns="http://www.w3.org/2000/svg" xmlns:xlink="http://www.w3.org/1999/xlink" x="0px" y="0px"
	 viewBox="0 0 5184 2061.7" style="enable-background:new 0 0 5184 2061.7;" xml:space="preserve">
<style type="text/css">
	.st0{fill:#6849A3;}
	.st1{fill:#FFFFFF;}
	.st2{fill:#424E5A;}
	.st3{font-family:'ArialMT';}
	.st4{font-size:687.4128px;}
</style>
<g id="Layer_2_1_">
</g>
<g id="Layer_1">
	<path class="st0" d="M1588.7,2058.3H469.5C210.2,2058.3,0,1848.1,0,1588.8V469.5C0,210.2,210.2,0,469.5,0h1119.2
		c259.3,0,469.5,210.2,469.5,469.5v1119.2C2058.2,1848.1,1848,2058.3,1588.7,2058.3z"/>
	<g id="XMLID_9093_">
		<path id="XMLID_9094_" class="st1" d="M1033.5,425.7c-42.4,0-78.5,27-92.2,64.7l-522.2,65c-44.8,5.6-76.7,46.6-71.1,91.4
			c5.2,41.4,40.5,71.8,81.2,71.8c3.4,0,6.8-0.2,10.2-0.7l21.3-2.6l-156.4,463.1c-0.4,1.1-0.7,2.3-0.9,3.5H194.8l2.3,29.8
			c7.4,96.8,89.1,172.7,186.1,172.7h283.2c97,0,178.8-75.8,186.1-172.7l2.3-29.8H753.5c-0.2-1.1-0.5-2.3-0.9-3.5L590.8,699.2
			l344.5-42.9v800.2H755.7c-54.2,0-98.2,44.1-98.2,98.2c0,54.2,44.1,98.2,98.2,98.2h555.6c54.2,0,98.2-44.1,98.2-98.2
			c0-54.2-44.1-98.2-98.2-98.2h-179.6V631.9l334-41.6L1313,1042.6c-0.4,1.2-0.7,2.3-0.9,3.5h-108.6l2.3,29.8
			c7.4,96.8,89.1,172.7,186.1,172.7h283.2c97,0,178.7-75.9,186.1-172.7l2.3-29.8h-101.2c-0.2-1.2-0.5-2.3-0.9-3.5L1603,573.2
			l36.2-4.5c44.9-5.6,76.8-46.6,71.2-91.4c-5.6-44.8-46.7-76.8-91.4-71.2l-504.1,62.7C1097.1,442.8,1067.3,425.7,1033.5,425.7z
			 M791.5,1237.4c-17.2,53.8-68.2,91.9-125.2,91.9H383.1c-56.9,0-108-38.1-125.2-91.9H791.5z M702.3,1182.1H354.4l159.8-473.3
			l27.1-3.4L702.3,1182.1z M1311.3,1505.6c27.1,0,49.1,22.1,49.1,49.1c0,27.1-22.1,49.1-49.1,49.1H755.7c-27.1,0-49.1-22-49.1-49.1
			c0-27,22-49.1,49.1-49.1h182.8h25.8h26.8h84.6h26.8h25.8H1311.3z M1800.2,1101.3c-17.2,53.8-68.2,91.8-125.2,91.8h-283.2
			c-57,0-108-38-125.2-91.8H1800.2z M1711,1046.1h-347.8l156.1-462.4l34.1-4.3L1711,1046.1z M1624.9,454.8c1.3-0.1,2.7-0.2,4.1-0.2
			c16.3,0,30.5,12.2,32.6,28.8c1.1,8.6-1.3,17.2-6.7,24.2c-5.5,6.9-13.2,11.4-21.8,12.5l-501.3,62.4l-24.6,3.1l-24.6,3v24.7v24.8
			v818.5h-98.2V650.3v-24.8v-24.7l-24.6,3l-24.5,3l-502,62.5c-8.6,1.1-17.3-1.3-24.2-6.7c-6.9-5.4-11.4-13.1-12.5-21.8
			c-1.1-8.6,1.3-17.2,6.7-24.2c5.4-7,13.1-11.4,21.8-12.5l510.2-63.6l24.5-3.1l24.6-3v-10.6c0-5,0.9-9.8,2.4-14.4
			c3.6-11.5,11.1-21.2,21.2-27.4c7.4-4.6,16.1-7.3,25.5-7.3c5,0,9.7,0.9,14.3,2.4c11.6,3.6,21.3,11.1,27.6,21.3
			c4.3,7,6.9,15.1,7.2,23.9l24.2-3l24.7-3.1L1624.9,454.8z"/>
	</g>
	<text transform="matrix(1 0 0 1 2363.6448 1225.437)" class="st2 st3 st4">ЮРИСТ</text>
</g>
</svg>
