<?xml version="1.0" encoding="utf-8"?>
<!-- Generator: Adobe Illustrator 22.0.1, SVG Export Plug-In . SVG Version: 6.00 Build 0)  -->
<svg version="1.1" id="Layer_1" xmlns="http://www.w3.org/2000/svg" xmlns:xlink="http://www.w3.org/1999/xlink" x="0px" y="0px"
	 viewBox="0 0 80 80" style="enable-background:new 0 0 80 80;" xml:space="preserve">
<style type="text/css">
	.st0{fill:#FEFBED;}
	.st1{fill:#F1CB45;stroke:#F1CB45;stroke-width:0.5;}
</style>
<circle class="st0" cx="40" cy="40" r="40"/>
<path class="st1" d="M44.9,18c-2.1,0-4,1.1-5.1,2.7c-1.1-1.1-2.5-1.8-4.2-1.8c-3.2,0-5.8,2.6-5.8,5.8c0,1.1,0.3,2.2,0.9,3.1h-9.4
	c-0.7,0-1.3,0.6-1.3,1.3v8c0,0.7,0.6,1.3,1.3,1.3h1.3v18.2c0,0.7,0.6,1.3,1.3,1.3h32c0.7,0,1.3-0.6,1.3-1.3V38.4h1.3
	c0.7,0,1.3-0.6,1.3-1.3v-8c0-0.7-0.6-1.3-1.3-1.3H50c0.7-1,1.1-2.2,1.1-3.6C51.1,20.8,48.3,18,44.9,18z M44.9,20.7
	c2,0,3.6,1.6,3.6,3.6s-1.6,3.6-3.6,3.6h-3.6c0-1.2,0-2.4,0-3.6C41.3,22.2,42.9,20.7,44.9,20.7z M35.6,21.6c1.7,0,3.1,1.4,3.1,3.1
	v3.1h-3.1c-1.7,0-3.1-1.4-3.1-3.1C32.4,22.9,33.8,21.6,35.6,21.6z M22.7,30.4c5.3,0,10.7,0,16,0v5.3c-5.3,0-10.7,0-16,0V30.4z
	 M41.3,30.4c5.3,0,10.7,0,16,0v5.3c-5.3,0-10.7,0-16,0V30.4z M25.3,38.4h13.3v16.9H25.3V38.4z M41.3,38.4h13.3v16.9H41.3V38.4z"/>
</svg>
