<svg width="80" height="80" viewBox="0 0 80 80" fill="none" xmlns="http://www.w3.org/2000/svg">
<circle cx="40" cy="40" r="40" fill="#E9FCF3"/>
<path fill-rule="evenodd" clip-rule="evenodd" d="M19.2493 53.8267C19.2493 56.1283 21.1226 58 23.4226 58H55.0759C57.3776 58 59.2493 56.1283 59.2493 53.8267V29.6667V25.5083C59.2493 23.2067 57.3759 21.3333 55.0743 21.3333H52.5826V19.6667C52.5826 18.7467 51.8376 18 50.9159 18C49.9943 18 49.2493 18.7467 49.2493 19.6667V21.3333H29.2493V19.6667C29.2493 18.7467 28.5026 18 27.5826 18C26.6626 18 25.9159 18.7467 25.9159 19.6667V21.3333H23.4243C21.1226 21.3333 19.2493 23.2067 19.2493 25.5083V29.6667V53.8267ZM22.5826 28H55.9159V25.5083C55.9159 25.045 55.5376 24.6667 55.0743 24.6667H52.5826C52.5826 25.5867 51.8376 26.3333 50.9159 26.3333C49.9943 26.3333 49.2493 25.5867 49.2493 24.6667H29.2493C29.2493 25.5867 28.5026 26.3333 27.5826 26.3333C26.6626 26.3333 25.9159 25.5867 25.9159 24.6667H23.4243C22.9609 24.6667 22.5826 25.045 22.5826 25.5083V28ZM22.5826 31.3333H55.9159V53.8267C55.9159 54.29 55.5393 54.6667 55.0759 54.6667H23.4226C22.9593 54.6667 22.5826 54.29 22.5826 53.8267V31.3333ZM30.9159 49.6667C30.9159 50.5871 30.1697 51.3333 29.2493 51.3333C28.3288 51.3333 27.5826 50.5871 27.5826 49.6667C27.5826 48.7462 28.3288 48 29.2493 48C30.1697 48 30.9159 48.7462 30.9159 49.6667ZM29.2493 44.6667C30.1697 44.6667 30.9159 43.9205 30.9159 43C30.9159 42.0795 30.1697 41.3333 29.2493 41.3333C28.3288 41.3333 27.5826 42.0795 27.5826 43C27.5826 43.9205 28.3288 44.6667 29.2493 44.6667ZM35.9159 49.6667C35.9159 50.5871 35.1697 51.3333 34.2493 51.3333C33.3288 51.3333 32.5826 50.5871 32.5826 49.6667C32.5826 48.7462 33.3288 48 34.2493 48C35.1697 48 35.9159 48.7462 35.9159 49.6667ZM34.2493 44.6667C35.1697 44.6667 35.9159 43.9205 35.9159 43C35.9159 42.0795 35.1697 41.3333 34.2493 41.3333C33.3288 41.3333 32.5826 42.0795 32.5826 43C32.5826 43.9205 33.3288 44.6667 34.2493 44.6667ZM35.9159 36.3333C35.9159 37.2538 35.1697 38 34.2493 38C33.3288 38 32.5826 37.2538 32.5826 36.3333C32.5826 35.4129 33.3288 34.6667 34.2493 34.6667C35.1697 34.6667 35.9159 35.4129 35.9159 36.3333ZM44.2493 51.3333C45.1697 51.3333 45.9159 50.5871 45.9159 49.6667C45.9159 48.7462 45.1697 48 44.2493 48C43.3288 48 42.5826 48.7462 42.5826 49.6667C42.5826 50.5871 43.3288 51.3333 44.2493 51.3333ZM45.9159 43C45.9159 43.9205 45.1697 44.6667 44.2493 44.6667C43.3288 44.6667 42.5826 43.9205 42.5826 43C42.5826 42.0795 43.3288 41.3333 44.2493 41.3333C45.1697 41.3333 45.9159 42.0795 45.9159 43ZM44.2493 38C45.1697 38 45.9159 37.2538 45.9159 36.3333C45.9159 35.4129 45.1697 34.6667 44.2493 34.6667C43.3288 34.6667 42.5826 35.4129 42.5826 36.3333C42.5826 37.2538 43.3288 38 44.2493 38ZM50.9159 43C50.9159 43.9205 50.1697 44.6667 49.2493 44.6667C48.3288 44.6667 47.5826 43.9205 47.5826 43C47.5826 42.0795 48.3288 41.3333 49.2493 41.3333C50.1697 41.3333 50.9159 42.0795 50.9159 43ZM49.2493 38C50.1697 38 50.9159 37.2538 50.9159 36.3333C50.9159 35.4129 50.1697 34.6667 49.2493 34.6667C48.3288 34.6667 47.5826 35.4129 47.5826 36.3333C47.5826 37.2538 48.3288 38 49.2493 38ZM40.9159 49.6667C40.9159 50.5871 40.1697 51.3333 39.2493 51.3333C38.3288 51.3333 37.5826 50.5871 37.5826 49.6667C37.5826 48.7462 38.3288 48 39.2493 48C40.1697 48 40.9159 48.7462 40.9159 49.6667ZM39.2493 44.6667C40.1697 44.6667 40.9159 43.9205 40.9159 43C40.9159 42.0795 40.1697 41.3333 39.2493 41.3333C38.3288 41.3333 37.5826 42.0795 37.5826 43C37.5826 43.9205 38.3288 44.6667 39.2493 44.6667ZM40.9159 36.3333C40.9159 37.2538 40.1697 38 39.2493 38C38.3288 38 37.5826 37.2538 37.5826 36.3333C37.5826 35.4129 38.3288 34.6667 39.2493 34.6667C40.1697 34.6667 40.9159 35.4129 40.9159 36.3333Z" fill="#1DDA82"/>
</svg>
