<svg width="80" height="80" viewBox="0 0 80 80" fill="none" xmlns="http://www.w3.org/2000/svg">
<circle cx="40" cy="40" r="40" fill="#E9FCF3"/>
<path d="M26.9178 53.1318L26.9261 53.1398L26.9599 53.1739C31.3149 57.4576 37.1511 59.9016 43.259 59.9993C45.4041 60.0184 47.5339 59.6374 49.5394 58.8758C49.9517 58.7112 50.3051 58.4267 50.554 58.0592C50.8029 57.6916 50.9358 57.2578 50.9356 56.8138V53.898C50.9339 53.3901 50.801 52.8913 50.5497 52.4499C50.2983 52.0086 49.9371 51.6397 49.5012 51.3791L44.2604 48.2696C43.8452 48.0208 43.3489 47.9452 42.8785 48.0593C42.4081 48.1734 42.0015 48.468 41.7465 48.8794L39.5702 52.3621C39.4027 52.6283 39.0048 52.5354 38.9271 52.5139C36.3395 51.8065 34.1558 50.4613 31.8467 48.152C29.538 45.8432 28.1926 43.6597 27.4849 41.0714C27.4632 40.9936 27.3704 40.5959 27.6368 40.4289C28.1661 40.0967 28.8755 39.654 29.5675 39.222L31.1182 38.2534C31.5303 37.9983 31.8253 37.5911 31.9394 37.1201C32.0535 36.649 31.9775 36.152 31.7278 35.7365L28.6186 30.4962C28.358 30.0607 27.9892 29.7 27.548 29.449C27.1069 29.198 26.6084 29.0652 26.1008 29.0636H23.1847C22.7411 29.0632 22.3076 29.1959 21.9401 29.4445C21.5727 29.6931 21.2884 30.0463 21.1238 30.4583C18.3887 37.4566 20.7832 46.9376 26.8167 53.0302L26.9178 53.1318ZM22.6146 31.0384C22.6611 30.9259 22.7403 30.83 22.842 30.763C22.9436 30.696 23.063 30.6612 23.1847 30.6628H26.1008C26.3313 30.6637 26.5576 30.7241 26.7579 30.8381C26.9582 30.9521 27.1257 31.1159 27.2441 31.3136L30.3511 36.5509C30.3859 36.6077 30.397 36.6759 30.3819 36.7407C30.3668 36.8056 30.3267 36.8618 30.2704 36.8974L28.721 37.8653C28.0277 38.2979 27.317 38.7413 26.7877 39.0737C26.401 39.3286 26.1087 39.7036 25.956 40.1409C25.8032 40.5781 25.7983 41.0535 25.942 41.4938C26.7165 44.3257 28.2338 46.8007 30.716 49.2831C33.1987 51.7655 35.6735 53.2826 38.5054 54.0568C38.9457 54.2002 39.4209 54.1951 39.8581 54.0425C40.2952 53.8898 40.6702 53.5979 40.9256 53.2116L43.1028 49.7272C43.1382 49.6715 43.1939 49.6319 43.2581 49.6168C43.3223 49.6017 43.3899 49.6123 43.4464 49.6463L48.6842 52.7539C48.8822 52.8723 49.0464 53.0398 49.1606 53.2403C49.2749 53.4407 49.3354 53.6673 49.3363 53.898V56.8139C49.3379 56.936 49.3027 57.0557 49.2354 57.1577C49.1681 57.2596 49.0718 57.3389 48.9588 57.3855C42.514 59.905 33.7345 57.6501 28.0711 52.023C28.0533 52.0031 28.0355 51.9842 28.0173 51.9658L27.95 51.9016C22.343 46.2375 20.0981 37.4759 22.6146 31.0384ZM59.1997 20H37.7847C37.6797 20 37.5757 20.0207 37.4787 20.0608C37.3817 20.101 37.2935 20.1599 37.2193 20.2342C37.145 20.3084 37.0861 20.3966 37.046 20.4936C37.0058 20.5906 36.9851 20.6946 36.9851 20.7996V36.7939C36.9851 36.8989 37.0058 37.0029 37.046 37.0999C37.0861 37.1969 37.145 37.2851 37.2193 37.3593C37.2935 37.4336 37.3817 37.4925 37.4787 37.5327C37.5757 37.5729 37.6797 37.5935 37.7847 37.5935H38.8599L37.0476 41.9042C36.9835 42.0568 36.9683 42.2254 37.0041 42.3869C37.0398 42.5484 37.1248 42.6948 37.2472 42.806C37.3696 42.9173 37.5235 42.9878 37.6877 43.0079C37.8519 43.0281 38.0183 42.9968 38.164 42.9184L48.0542 37.5935H59.1997C59.3047 37.5935 59.4087 37.5729 59.5057 37.5327C59.6027 37.4925 59.6909 37.4336 59.7651 37.3593C59.8394 37.2851 59.8983 37.1969 59.9385 37.0999C59.9786 37.0029 59.9993 36.8989 59.9993 36.7939V20.7996C59.9993 20.6946 59.9786 20.5906 59.9385 20.4936C59.8983 20.3966 59.8394 20.3084 59.7651 20.2342C59.6909 20.1599 59.6027 20.101 59.5057 20.0608C59.4087 20.0207 59.3047 20 59.1997 20V20ZM58.4 35.9943H47.8525C47.7201 35.9943 47.5898 36.0271 47.4732 36.0897L39.3996 40.4365L40.8011 37.1039C40.8522 36.9823 40.8724 36.85 40.86 36.7187C40.8476 36.5875 40.8029 36.4613 40.73 36.3514C40.657 36.2416 40.558 36.1515 40.4418 36.0892C40.3256 36.0269 40.1958 35.9943 40.0639 35.9943H38.5844V21.5993H58.4V35.9943ZM54.6678 27.1528H42.3166V25.5536H54.6678V27.1528ZM54.6678 32.04H42.3166V30.4407H54.6678V32.04Z" fill="#1DDA82" stroke="#1DDA82" stroke-width="1.25"/>
</svg>
