<svg width="80" height="80" viewBox="0 0 80 80" fill="none" xmlns="http://www.w3.org/2000/svg">
<circle cx="40" cy="40" r="40" fill="#E9FCF3"/>
<path d="M44.8889 18C42.762 18 40.8736 19.0806 39.75 20.7222C38.6944 19.604 37.2035 18.8889 35.5556 18.8889C32.3804 18.8889 29.7778 21.4915 29.7778 24.6667C29.7778 25.8105 30.1138 26.8775 30.6944 27.7778H21.3333C20.6352 27.7778 20.0001 28.413 20 29.1111V37.1111C20.0001 37.8092 20.6352 38.4444 21.3333 38.4444H22.6667V56.6667C22.6668 57.3648 23.3019 57.9999 24 58H56C56.6981 57.9999 57.3332 57.3648 57.3333 56.6667V38.4444H58.6667C59.3648 38.4444 59.9999 37.8092 60 37.1111V29.1111C59.9999 28.413 59.3648 27.7778 58.6667 27.7778H49.9861C50.6932 26.7684 51.1111 25.5403 51.1111 24.2222C51.1111 20.8016 48.3095 18 44.8889 18ZM44.8889 20.6667C46.8684 20.6667 48.4444 22.2428 48.4444 24.2222C48.4444 26.2017 46.8684 27.7778 44.8889 27.7778H41.3333C41.3333 26.5926 41.3333 25.4074 41.3333 24.2222C41.3333 22.2428 42.9094 20.6667 44.8889 20.6667ZM35.5556 21.5556C37.2895 21.5556 38.6667 22.9327 38.6667 24.6667V27.7778H35.5556C33.8216 27.7778 32.4444 26.4006 32.4444 24.6667C32.4444 22.9327 33.8216 21.5556 35.5556 21.5556ZM22.6667 30.4444C28 30.4444 33.3333 30.4444 38.6667 30.4444V35.7778C33.3333 35.7778 28 35.7778 22.6667 35.7778V30.4444ZM41.3333 30.4444C46.6667 30.4444 52 30.4444 57.3333 30.4444V35.7778C52 35.7778 46.6667 35.7778 41.3333 35.7778V30.4444ZM25.3333 38.4444H38.6667V55.3333H25.3333V38.4444ZM41.3333 38.4444H54.6667V55.3333H41.3333V38.4444Z" fill="#1DDA82" stroke="#1DDA82" stroke-width="0.5"/>
</svg>
