<svg width="80" height="80" viewBox="0 0 80 80" fill="none" xmlns="http://www.w3.org/2000/svg">
<circle cx="40" cy="40" r="40" fill="#E9FCF3"/>
<path d="M54.6573 50.3606V52.5089H31.3836C30.7698 52.5089 30.156 52.7136 29.6957 53.0716L24.2225 57.3171V24.2225H54.6573V33.9923L57.8798 30.3606V23.7621C57.8798 22.2276 56.601 21 55.1176 21H23.7621C22.2276 21 21 22.2276 21 23.7621V58.1867C21 59.2609 21.5627 60.1816 22.5345 60.6931C22.9437 60.8977 23.3529 61 23.7621 61C24.3248 61 24.9386 60.7954 25.4501 60.4373L31.3836 55.7315H55.1176C56.6522 55.7315 57.8798 54.4527 57.8798 52.9693V47.2916L55.8338 49.5934C55.5269 49.9003 55.1176 50.2072 54.6573 50.3606Z" fill="#1DDA82"/>
<path d="M30.4117 31.9974H48.4168C49.3376 31.9974 50.0537 31.2813 50.0537 30.3606C50.0537 29.491 49.3376 28.7238 48.4168 28.7238H30.4117C29.491 28.7238 28.7749 29.491 28.7749 30.3606C28.8261 31.2813 29.5422 31.9974 30.4117 31.9974Z" fill="#1DDA82"/>
<path d="M50.0537 38.1355C50.0537 37.266 49.3376 36.4987 48.4168 36.4987H30.4117C29.491 36.4987 28.7749 37.266 28.7749 38.1355C28.7749 39.0563 29.491 39.7724 30.4117 39.7724H48.4168C49.3376 39.7724 50.0537 39.0563 50.0537 38.1355Z" fill="#1DDA82"/>
<path d="M28.8262 45.9104C28.8262 46.8312 29.5423 47.5473 30.463 47.5473H46.0129L46.5755 44.3248H30.4118C29.5423 44.3248 28.8262 45.0409 28.8262 45.9104Z" fill="#1DDA82"/>
<path d="M61.4775 30.2165L51.8846 40.9204L56.4557 45.017L66.0485 34.3131L61.4775 30.2165Z" fill="#1DDA82"/>
<path d="M69.2864 29.3376L66.1151 26.4732C65.757 26.1151 65.1432 26.1662 64.8363 26.5243L62.9437 28.6726L67.4962 32.7647L69.3887 30.6164C69.6956 30.2583 69.6445 29.6445 69.2864 29.3376Z" fill="#1DDA82"/>
<path d="M49.5933 49.2353L53.4808 48.11C53.6343 48.0588 53.7877 47.9565 53.89 47.8542L55.0153 46.6266L50.4629 42.5345L49.3376 43.7622C49.2353 43.9156 49.133 44.0691 49.133 44.2225L48.468 48.2123C48.3657 48.8773 48.9795 49.3888 49.5933 49.2353Z" fill="#1DDA82"/>
</svg>
