<?xml version="1.0" encoding="utf-8"?>
<!-- Generator: Adobe Illustrator 22.0.1, SVG Export Plug-In . SVG Version: 6.00 Build 0)  -->
<svg version="1.1" id="Layer_1" xmlns="http://www.w3.org/2000/svg" xmlns:xlink="http://www.w3.org/1999/xlink" x="0px" y="0px"
	 viewBox="0 0 80 80" style="enable-background:new 0 0 80 80;" xml:space="preserve">
<style type="text/css">
	.st0{fill:#FFF7EA;}
	.st1{fill:#F7A72A;}
</style>
<circle class="st0" cx="40" cy="40" r="40"/>
<path class="st1" d="M19.2,53.8c0,2.3,1.9,4.2,4.2,4.2h31.7c2.3,0,4.2-1.9,4.2-4.2V29.7v-4.2c0-2.3-1.9-4.2-4.2-4.2h-2.5v-1.7
	c0-0.9-0.7-1.7-1.7-1.7c-0.9,0-1.7,0.7-1.7,1.7v1.7h-20v-1.7c0-0.9-0.7-1.7-1.7-1.7s-1.7,0.7-1.7,1.7v1.7h-2.5
	c-2.3,0-4.2,1.9-4.2,4.2v4.2v24.1C19.1,53.8,19.2,53.8,19.2,53.8z M22.6,28h33.3v-2.5c0-0.5-0.4-0.8-0.8-0.8h-2.5
	c0,0.9-0.7,1.7-1.7,1.7c-0.9,0-1.7-0.7-1.7-1.7h-20c0,0.9-0.7,1.7-1.7,1.7s-1.7-0.7-1.7-1.7h-2.5c-0.5,0-0.8,0.4-0.8,0.8V28H22.6z
	 M22.6,31.3h33.3v22.5c0,0.5-0.4,0.8-0.8,0.8H23.4c-0.5,0-0.8-0.4-0.8-0.8V31.3z M30.9,49.7c0,0.9-0.7,1.7-1.7,1.7
	c-0.9,0-1.7-0.7-1.7-1.7c0-0.9,0.7-1.7,1.7-1.7C30.2,48,30.9,48.7,30.9,49.7z M29.2,44.7c0.9,0,1.7-0.7,1.7-1.7s-0.7-1.7-1.7-1.7
	c-0.9,0-1.7,0.7-1.7,1.7S28.3,44.7,29.2,44.7z M35.9,49.7c0,0.9-0.7,1.7-1.7,1.7c-0.9,0-1.7-0.7-1.7-1.7c0-0.9,0.7-1.7,1.7-1.7
	S35.9,48.7,35.9,49.7z M34.2,44.7c0.9,0,1.7-0.7,1.7-1.7s-0.7-1.7-1.7-1.7c-0.9,0-1.7,0.7-1.7,1.7S33.3,44.7,34.2,44.7z M35.9,36.3
	c0,0.9-0.7,1.7-1.7,1.7c-0.9,0-1.7-0.7-1.7-1.7c0-0.9,0.7-1.7,1.7-1.7C35.2,34.7,35.9,35.4,35.9,36.3z M44.2,51.3
	c0.9,0,1.7-0.7,1.7-1.7c0-0.9-0.7-1.7-1.7-1.7c-0.9,0-1.7,0.7-1.7,1.7C42.6,50.6,43.3,51.3,44.2,51.3z M45.9,43
	c0,0.9-0.7,1.7-1.7,1.7c-0.9,0-1.7-0.7-1.7-1.7s0.7-1.7,1.7-1.7S45.9,42.1,45.9,43z M44.2,38c0.9,0,1.7-0.7,1.7-1.7
	c0-0.9-0.7-1.7-1.7-1.7c-0.9,0-1.7,0.7-1.7,1.7C42.6,37.3,43.3,38,44.2,38z M50.9,43c0,0.9-0.7,1.7-1.7,1.7c-0.9,0-1.7-0.7-1.7-1.7
	s0.7-1.7,1.7-1.7S50.9,42.1,50.9,43z M49.2,38c0.9,0,1.7-0.7,1.7-1.7c0-0.9-0.7-1.7-1.7-1.7c-0.9,0-1.7,0.7-1.7,1.7
	C47.6,37.3,48.3,38,49.2,38z M40.9,49.7c0,0.9-0.7,1.7-1.7,1.7c-0.9,0-1.7-0.7-1.7-1.7c0-0.9,0.7-1.7,1.7-1.7S40.9,48.7,40.9,49.7z
	 M39.2,44.7c0.9,0,1.7-0.7,1.7-1.7s-0.7-1.7-1.7-1.7c-0.9,0-1.7,0.7-1.7,1.7S38.3,44.7,39.2,44.7z M40.9,36.3c0,0.9-0.7,1.7-1.7,1.7
	c-0.9,0-1.7-0.7-1.7-1.7c0-0.9,0.7-1.7,1.7-1.7C40.2,34.7,40.9,35.4,40.9,36.3z"/>
</svg>
