<?xml version="1.0" encoding="utf-8"?>
<!-- Generator: Adobe Illustrator 22.0.1, SVG Export Plug-In . SVG Version: 6.00 Build 0)  -->
<svg version="1.1" id="Layer_1" xmlns="http://www.w3.org/2000/svg" xmlns:xlink="http://www.w3.org/1999/xlink" x="0px" y="0px"
	 viewBox="0 0 80 80" style="enable-background:new 0 0 80 80;" xml:space="preserve">
<style type="text/css">
	.st0{fill:#FFF7EA;}
	.st1{fill:#F7A72A;stroke:#F7A72A;stroke-width:1.25;}
</style>
<circle class="st0" cx="40" cy="40" r="40"/>
<path class="st1" d="M26.9,53.1L26.9,53.1L26.9,53.1c4.4,4.3,10.2,6.8,16.3,6.9c2.1,0,4.3-0.4,6.3-1.1c0.4-0.2,0.8-0.4,1-0.8
	c0.2-0.4,0.4-0.8,0.4-1.2V54c0-0.5-0.1-1-0.4-1.4c-0.3-0.4-0.6-0.8-1-1.1l-5.2-3.1c-0.4-0.2-0.9-0.3-1.4-0.2S42,48.6,41.8,49
	l-2.2,3.5c-0.2,0.3-0.6,0.2-0.6,0.2c-2.6-0.7-4.8-2.1-7.1-4.4c-2.3-2.3-3.7-4.5-4.4-7.1c0-0.1-0.1-0.5,0.2-0.6
	c0.5-0.3,1.2-0.8,1.9-1.2l1.6-1c0.4-0.3,0.7-0.7,0.8-1.1c0.1-0.5,0-1-0.2-1.4l-3.1-5.2c-0.3-0.4-0.6-0.8-1.1-1
	c-0.4-0.3-0.9-0.4-1.4-0.4h-2.9c-0.4,0-0.9,0.1-1.2,0.4c-0.4,0.2-0.7,0.6-0.8,1c-2.7,7-0.3,16.5,5.7,22.6L26.9,53.1z M22.6,31
	c0-0.1,0.1-0.2,0.2-0.3c0.1-0.1,0.2-0.1,0.3-0.1H26c0.2,0,0.5,0.1,0.7,0.2s0.4,0.3,0.5,0.5l3.1,5.2c0,0.1,0,0.1,0,0.2
	c0,0.1-0.1,0.1-0.1,0.2l-1.5,1c-0.7,0.4-1.4,0.9-1.9,1.2c-0.4,0.3-0.7,0.6-0.8,1.1c-0.2,0.4-0.2,0.9,0,1.4c0.8,2.8,2.3,5.3,4.8,7.8
	s5,4,7.8,4.8c0.4,0.1,0.9,0.1,1.4,0c0.4-0.2,0.8-0.4,1.1-0.8l2.2-3.5c0-0.1,0.1-0.1,0.2-0.1c0.1,0,0.1,0,0.2,0l5.2,3.1
	c0.2,0.1,0.4,0.3,0.5,0.5s0.2,0.4,0.2,0.7V57c0,0.1,0,0.2-0.1,0.3s-0.2,0.2-0.3,0.2C42.8,60,34,57.8,28.3,52.1c0,0,0,0-0.1-0.1
	L28,51.9C22.3,46.2,20.1,37.5,22.6,31z M59.2,20H37.8c-0.1,0-0.2,0-0.3,0.1c-0.1,0-0.2,0.1-0.3,0.2s-0.1,0.2-0.2,0.3
	c0,0.1-0.1,0.2-0.1,0.3v16c0,0.1,0,0.2,0.1,0.3c0,0.1,0.1,0.2,0.2,0.3c0.1,0.1,0.2,0.1,0.3,0.2s0.2,0.1,0.3,0.1h1.1L37,41.9
	c-0.1,0.2-0.1,0.3,0,0.5c0,0.2,0.1,0.3,0.2,0.4c0.1,0.1,0.3,0.2,0.4,0.2c0.2,0,0.3,0,0.5-0.1l9.9-5.3h11.1c0.1,0,0.2,0,0.3-0.1
	s0.2-0.1,0.3-0.2c0.1-0.1,0.1-0.2,0.2-0.3c0-0.1,0.1-0.2,0.1-0.3v-16c0-0.1,0-0.2-0.1-0.3c0-0.1-0.1-0.2-0.2-0.3
	c-0.1-0.1-0.2-0.1-0.3-0.2C59.4,20,59.3,20,59.2,20L59.2,20z M58.4,36H47.9c-0.1,0-0.3,0-0.4,0.1l-8.1,4.3l1.4-3.3
	c0.1-0.1,0.1-0.3,0.1-0.4c0-0.1-0.1-0.3-0.1-0.4c-0.1-0.1-0.2-0.2-0.3-0.3c-0.2,0-0.3,0-0.4,0h-1.5V21.6h19.8V36z M54.7,27.2H42.3
	v-1.6h12.4C54.7,25.6,54.7,27.2,54.7,27.2z M54.7,32H42.3v-1.6h12.4C54.7,30.4,54.7,32,54.7,32z"/>
</svg>
