<svg width="64" height="64" viewBox="0 0 64 64" fill="none" xmlns="http://www.w3.org/2000/svg">
<path fill-rule="evenodd" clip-rule="evenodd" d="M36.5221 32.0005L47.0579 21.4626C48.3076 20.2145 48.3076 18.1854 47.0579 16.9378C45.8081 15.6874 43.7836 15.6874 42.5339 16.9378L31.9976 27.4753L21.4613 16.9378C20.2116 15.6874 18.1871 15.6874 16.9373 16.9378C15.6876 18.1859 15.6876 20.215 16.9373 21.4626L27.4736 32.0005L16.9373 42.538C15.6876 43.7865 15.6876 45.8157 16.9373 47.0633C17.5627 47.6887 18.3815 48 19.2008 48C20.0201 48 20.8389 47.6887 21.4637 47.0633L32 36.5253L42.5363 47.0633C43.1611 47.6887 43.9799 48 44.7992 48C45.619 48 46.4373 47.6887 47.0627 47.0633C48.3124 45.8147 48.3124 43.7856 47.0627 42.538L36.5221 32.0005V32.0005Z" fill="white"/>
</svg>
