<svg width="32" height="30" viewBox="0 0 32 30" fill="none" xmlns="http://www.w3.org/2000/svg">
<path d="M20.568 8.67898C20.568 11.0895 18.5605 12.8521 17.5627 13.7043L17.2682 13.9669C17.0338 14.3126 16.9161 14.7206 16.9316 15.1342C16.9285 15.3649 16.8323 15.5852 16.6637 15.7478C16.4952 15.9104 16.2676 16.0024 16.0301 16.0039V16.0039C15.792 16.0023 15.5642 15.9094 15.3964 15.7454C15.2286 15.5814 15.1345 15.3596 15.1345 15.1284C15.1202 14.2543 15.427 13.4038 16 12.7296C16.0902 12.642 16.2104 12.5311 16.3606 12.4027C17.13 11.7257 18.7648 10.3132 18.7648 8.67898C18.7848 8.32897 18.7286 7.9788 18.5997 7.65135C18.4709 7.32389 18.2723 7.02652 18.0171 6.77865C17.7618 6.53077 17.4556 6.33798 17.1184 6.21286C16.7811 6.08774 16.4205 6.0331 16.0601 6.05252C15.6997 6.0331 15.3391 6.08774 15.0019 6.21286C14.6646 6.33798 14.3584 6.53077 14.1031 6.77865C13.8479 7.02652 13.6493 7.32389 13.5205 7.65135C13.3916 7.9788 13.3354 8.32897 13.3554 8.67898C13.3554 8.91117 13.2604 9.13385 13.0913 9.29804C12.9222 9.46222 12.6929 9.55446 12.4538 9.55446C12.2147 9.55446 11.9854 9.46222 11.8163 9.29804C11.6472 9.13385 11.5522 8.91117 11.5522 8.67898C11.5321 8.09886 11.635 7.52091 11.8544 6.98099C12.0738 6.44107 12.4052 5.95068 12.8278 5.54025C13.2505 5.12981 13.7555 4.80807 14.3115 4.59499C14.8675 4.38191 15.4627 4.28203 16.0601 4.30155C16.6575 4.28203 17.2527 4.38191 17.8087 4.59499C18.3647 4.80807 18.8697 5.12981 19.2924 5.54025C19.7151 5.95068 20.0464 6.44107 20.2658 6.98099C20.4852 7.52091 20.5881 8.09886 20.568 8.67898V8.67898ZM16.8896 18.2685C16.8696 18.2151 16.8434 18.1642 16.8114 18.1167C16.7767 18.0694 16.7385 18.0245 16.6972 17.9825C16.5913 17.881 16.4615 17.8061 16.3191 17.7644C16.1766 17.7227 16.0258 17.7154 15.8798 17.7432L15.7115 17.7899C15.6595 17.8136 15.6092 17.8409 15.5612 17.8716C15.5113 17.9038 15.465 17.941 15.423 17.9825C15.3817 18.0245 15.3435 18.0694 15.3088 18.1167C15.2772 18.1654 15.2491 18.2161 15.2246 18.2685C15.2051 18.3219 15.189 18.3765 15.1766 18.4319C15.1703 18.4881 15.1703 18.5449 15.1766 18.6011C15.177 18.7151 15.1994 18.8279 15.2427 18.9338C15.312 19.0937 15.4281 19.2304 15.5766 19.3268C15.7251 19.4233 15.8995 19.4754 16.0781 19.4766C16.1955 19.4762 16.3117 19.4545 16.4207 19.4124C16.5302 19.3662 16.63 19.3009 16.7153 19.2198C16.8844 19.0558 16.9795 18.8333 16.9797 18.6011C16.9859 18.5449 16.9859 18.4881 16.9797 18.4319C16.9566 18.3741 16.9263 18.3192 16.8896 18.2685V18.2685ZM32 6.71205V17.0253C31.9984 18.8049 31.2697 20.5113 29.9737 21.7697C28.6778 23.0281 26.9206 23.7358 25.0879 23.7373H20.55L16.8054 29.0953C16.7218 29.2121 16.6104 29.3075 16.4806 29.3734C16.3508 29.4393 16.2066 29.4737 16.0601 29.4737C15.9137 29.4737 15.7694 29.4393 15.6396 29.3734C15.5098 29.3075 15.3984 29.2121 15.3148 29.0953L11.5702 23.7373H6.9121C5.07938 23.7358 3.32219 23.0281 2.02626 21.7697C0.730339 20.5113 0.00159159 18.8049 0 17.0253V6.71205C0.00159159 4.93238 0.730339 3.22604 2.02626 1.96762C3.32219 0.709203 5.07938 0.00154553 6.9121 0H25.0879C26.9206 0.00154553 28.6778 0.709203 29.9737 1.96762C31.2697 3.22604 31.9984 4.93238 32 6.71205V6.71205ZM30.1968 6.71205C30.1953 5.39677 29.6565 4.13579 28.6987 3.20574C27.7409 2.2757 26.4424 1.75252 25.0879 1.75097H6.9121C5.55761 1.75252 4.25905 2.2757 3.30129 3.20574C2.34352 4.13579 1.80475 5.39677 1.80316 6.71205V17.0253C1.80475 18.3406 2.34352 19.6015 3.30129 20.5316C4.25905 21.4616 5.55761 21.9848 6.9121 21.9864H12.0451C12.1923 21.9866 12.3371 22.0219 12.467 22.089C12.597 22.1562 12.708 22.2532 12.7904 22.3716L16.0601 27.0408L19.3298 22.3716C19.4122 22.2532 19.5233 22.1562 19.6532 22.089C19.7831 22.0219 19.928 21.9866 20.0751 21.9864H25.0879C26.4424 21.9848 27.7409 21.4616 28.6987 20.5316C29.6565 19.6015 30.1953 18.3406 30.1968 17.0253V6.71205Z" fill="white"/>
</svg>
