<svg width="1440" height="137" viewBox="0 0 1440 137" fill="none" xmlns="http://www.w3.org/2000/svg">
<path fill-rule="evenodd" clip-rule="evenodd" d="M1440 66.7667L1380 51.1593C1320 35.5519 1200 4.33704 1080 0.435184C960 -3.46667 840 19.9444 720 27.7481C600 35.5519 480 27.7481 360 27.7481C240 27.7481 120 35.5519 59.9999 39.4537L-5.72205e-05 43.3556V137H59.9999C120 137 240 137 360 137C480 137 600 137 720 137C840 137 960 137 1080 137C1200 137 1320 137 1380 137H1440V66.7667Z" fill="white"/>
</svg>
